<svg width="419" height="417" viewBox="0 0 419 417" fill="none" xmlns="http://www.w3.org/2000/svg">
<g clip-path="url(#clip0_104_173)">
<path fill-rule="evenodd" clip-rule="evenodd" d="M33 106.509C85.5002 106.509 205 106.508 205 106.508C199.5 133.508 206.859 153.868 223.5 170.508C243.5 190.508 262.5 194.508 289 192.008V337.008L310 417.008L236 397.008H38.4998C18.9997 397.008 0.499777 378.008 0.499763 363.508C0.499705 302.508 0 182.009 0 141.009C0 122.009 22 106.509 33 106.509ZM51.5 254.509C49.39 201.52 92.4693 156.367 145.5 156.509C198.396 156.65 241.105 201.655 239 254.509C236.978 305.285 196.317 344.873 145.5 345.009C94.5427 345.144 53.5275 305.426 51.5 254.509Z" fill="#A8DADC"/>
<path d="M145.5 172.009C100.893 171.867 64.5237 209.945 66.5 254.509C68.3907 297.142 102.825 330.144 145.5 330.009C188.034 329.874 222.116 297.001 224 254.509C225.97 210.08 189.972 172.15 145.5 172.009Z" fill="#C9BD16"/>
<path d="M275.5 62.5086C307.813 62.3676 333.979 89.7101 333 122.009C332.05 153.339 306.845 178.145 275.5 178.009C244.295 177.872 219.446 153.2 218.5 122.009C217.525 89.8454 243.322 62.649 275.5 62.5086Z" fill="#C9BD16"/>
<path d="M361.5 0.00807004C341.896 -0.409113 325.776 15.402 325.5 35.0081C325.22 54.8883 341.622 71.431 361.5 71.0081C380.968 70.5939 396.274 54.4786 396 35.0081C395.73 15.8176 380.688 0.416409 361.5 0.00807004Z" fill="#C9BD16"/>
</g>
<defs>
<clipPath id="clip0_104_173">
<rect width="419" height="417" fill="white"/>
</clipPath>
</defs>
</svg>
