<svg width="700" height="700" viewBox="0 0 700 700" fill="none" xmlns="http://www.w3.org/2000/svg">
<path d="M126.336 603.008C125.952 603.008 125.76 602.768 125.76 602.288L126.048 503.36C126.048 502.976 126.24 502.784 126.624 502.784H155.712C160.896 502.784 165.648 504.08 169.968 506.672C174.384 509.168 177.888 512.576 180.48 516.896C183.072 521.12 184.368 525.92 184.368 531.296C184.368 534.848 183.84 538.064 182.784 540.944C181.728 543.728 180.48 546.128 179.04 548.144C177.6 550.064 176.304 551.504 175.152 552.464C180.336 558.224 182.928 564.992 182.928 572.768L183.072 602.288C183.072 602.768 182.832 603.008 182.352 603.008H166.08C165.696 603.008 165.504 602.864 165.504 602.576V572.768C165.504 569.312 164.256 566.336 161.76 563.84C159.36 561.248 156.384 559.952 152.832 559.952H143.328L143.184 602.288C143.184 602.768 142.992 603.008 142.608 603.008H126.336ZM143.328 542.672H155.712C158.688 542.672 161.328 541.568 163.632 539.36C165.936 537.152 167.088 534.464 167.088 531.296C167.088 528.224 165.936 525.584 163.632 523.376C161.424 521.168 158.784 520.064 155.712 520.064H143.328V542.672ZM251.262 604.448C245.982 604.448 241.182 603.152 236.862 600.56C232.638 597.872 229.278 594.32 226.782 589.904C224.286 585.488 223.038 580.544 223.038 575.072L223.182 530.144C223.182 524.864 224.382 520.064 226.782 515.744C229.278 511.328 232.638 507.824 236.862 505.232C241.182 502.544 245.982 501.2 251.262 501.2C256.542 501.2 261.294 502.496 265.518 505.088C269.742 507.68 273.102 511.184 275.598 515.6C278.094 519.92 279.342 524.768 279.342 530.144V536.768C279.342 537.152 279.15 537.344 278.766 537.344H262.638C262.254 537.344 262.062 537.152 262.062 536.768V530.144C262.062 526.976 261.006 524.24 258.894 521.936C256.878 519.632 254.334 518.48 251.262 518.48C247.806 518.48 245.166 519.68 243.342 522.08C241.518 524.384 240.606 527.072 240.606 530.144V575.072C240.606 578.624 241.614 581.504 243.63 583.712C245.742 585.92 248.286 587.024 251.262 587.024C254.334 587.024 256.878 585.824 258.894 583.424C261.006 580.928 262.062 578.144 262.062 575.072V568.448C262.062 568.064 262.254 567.872 262.638 567.872H278.91C279.294 567.872 279.486 568.064 279.486 568.448V575.072C279.486 580.544 278.19 585.488 275.598 589.904C273.102 594.32 269.742 597.872 265.518 600.56C261.294 603.152 256.542 604.448 251.262 604.448ZM320.832 603.008C320.448 603.008 320.256 602.768 320.256 602.288L320.544 503.36C320.544 502.976 320.736 502.784 321.12 502.784H338.688C339.072 502.784 339.408 502.976 339.696 503.36L352.8 522.368L365.904 503.36C366.192 502.976 366.528 502.784 366.912 502.784H384.624C385.008 502.784 385.2 502.976 385.2 503.36L385.488 602.288C385.488 602.768 385.296 603.008 384.912 603.008H368.64C368.256 603.008 368.064 602.768 368.064 602.288L367.92 528.848L352.8 550.736L337.824 528.848L337.68 602.288C337.68 602.768 337.488 603.008 337.104 603.008H320.832ZM456.351 603.008C455.967 603.008 455.775 602.768 455.775 602.288V585.44H424.671C424.287 585.44 424.095 585.2 424.095 584.72V568.88L455.487 503.36C455.679 502.976 455.967 502.784 456.351 502.784H472.623C472.911 502.784 473.055 502.976 473.055 503.36L473.199 568.304H483.279C483.759 568.304 483.999 568.544 483.999 569.024V584.72C483.999 585.2 483.807 585.44 483.423 585.44H473.199V602.288C473.199 602.768 473.007 603.008 472.623 603.008H456.351ZM441.087 568.304H455.775V536.912L441.087 568.304ZM547.528 604.448C542.344 604.448 537.592 603.152 533.272 600.56C529.048 597.872 525.64 594.368 523.048 590.048C520.552 585.632 519.304 580.784 519.304 575.504V568.88C519.304 568.4 519.544 568.16 520.024 568.16H536.152C536.536 568.16 536.728 568.4 536.728 568.88V575.504C536.728 578.672 537.784 581.408 539.896 583.712C542.008 585.92 544.552 587.024 547.528 587.024C550.504 587.024 553.048 585.872 555.16 583.568C557.272 581.264 558.328 578.576 558.328 575.504C558.328 571.952 556.024 568.88 551.416 566.288C549.88 565.424 547.48 564.08 544.216 562.256C540.952 560.432 537.88 558.704 535 557.072C529.72 554 525.784 550.16 523.192 545.552C520.696 540.848 519.448 535.568 519.448 529.712C519.448 524.336 520.744 519.536 523.336 515.312C525.928 510.992 529.336 507.584 533.56 505.088C537.88 502.592 542.536 501.344 547.528 501.344C552.616 501.344 557.272 502.64 561.496 505.232C565.816 507.728 569.224 511.136 571.72 515.456C574.312 519.68 575.608 524.432 575.608 529.712V541.52C575.608 541.904 575.416 542.096 575.032 542.096H558.904C558.52 542.096 558.328 541.904 558.328 541.52L558.184 529.712C558.184 526.352 557.128 523.616 555.016 521.504C552.904 519.392 550.408 518.336 547.528 518.336C544.552 518.336 542.008 519.488 539.896 521.792C537.784 524 536.728 526.64 536.728 529.712C536.728 532.88 537.4 535.52 538.744 537.632C540.088 539.744 542.536 541.76 546.088 543.68C546.568 543.968 547.48 544.496 548.824 545.264C550.264 545.936 551.8 546.752 553.432 547.712C555.064 548.576 556.504 549.344 557.752 550.016C559.096 550.688 559.912 551.12 560.2 551.312C565 554 568.792 557.312 571.576 561.248C574.36 565.088 575.752 569.84 575.752 575.504C575.752 580.976 574.456 585.92 571.864 590.336C569.368 594.656 565.96 598.112 561.64 600.704C557.416 603.2 552.712 604.448 547.528 604.448Z" fill="#A8DADC"/>
<path fill-rule="evenodd" clip-rule="evenodd" d="M186 159.509C238.5 159.509 358 159.508 358 159.508C352.5 186.508 359.859 206.868 376.5 223.508C396.5 243.508 415.5 247.508 442 245.008V390.008L463 470.008L389 450.008H191.5C172 450.008 153.5 431.008 153.5 416.508C153.5 355.508 153 235.009 153 194.009C153 175.009 175 159.509 186 159.509ZM204.5 307.509C202.39 254.52 245.469 209.367 298.5 209.509C351.396 209.65 394.105 254.655 392 307.509C389.978 358.285 349.317 397.873 298.5 398.009C247.543 398.144 206.527 358.426 204.5 307.509Z" fill="#A8DADC"/>
<path d="M298.5 225.009C253.893 224.867 217.524 262.945 219.5 307.509C221.391 350.142 255.825 383.144 298.5 383.009C341.034 382.874 375.116 350.001 377 307.509C378.97 263.08 342.972 225.15 298.5 225.009Z" fill="#C9BD16"/>
<path d="M428.5 115.509C460.813 115.368 486.979 142.71 486 175.009C485.05 206.339 459.845 231.145 428.5 231.009C397.295 230.872 372.446 206.2 371.5 175.009C370.525 142.845 396.322 115.649 428.5 115.509Z" fill="#C9BD16"/>
<path d="M514.5 53.0081C494.896 52.5909 478.776 68.402 478.5 88.0081C478.22 107.888 494.622 124.431 514.5 124.008C533.968 123.594 549.274 107.479 549 88.0081C548.73 68.8176 533.688 53.4164 514.5 53.0081Z" fill="#C9BD16"/>
</svg>
